<svg width="176" height="176" viewBox="0 0 176 176" fill="none" xmlns="http://www.w3.org/2000/svg">
<path d="M164.191 117.441H88.0013C86.9909 117.441 86.022 117.884 85.3075 118.673C84.5931 119.462 84.1918 120.532 84.1918 121.647C84.1918 129.455 81.3823 136.944 76.3814 142.465C71.3805 147.986 64.5979 151.088 57.5255 151.088C54.4945 151.088 51.5877 149.759 49.4444 147.393C47.3012 145.026 46.0971 141.817 46.0971 138.471V37.5294C46.0971 32.9793 44.7604 28.5519 42.2877 24.9118H118.477C121.508 24.9118 124.415 26.2411 126.558 28.6074C128.701 30.9737 129.905 34.183 129.905 37.5294V104.824H137.524V37.5294C137.524 31.9521 135.518 26.6032 131.945 22.6594C128.373 18.7156 123.529 16.5 118.477 16.5H27.0498C26.8365 16.5 24.7641 16.6346 23.8803 16.786C19.3546 17.7642 15.2844 20.4681 12.3818 24.4246C9.47927 28.3812 7.92909 33.3386 8.00249 38.4295C8.01656 43.7633 9.94196 48.8743 13.3581 52.6459C16.7742 56.4175 21.4035 58.5433 26.2346 58.5588H38.4782V138.471C38.4782 141.232 38.9709 143.967 39.9281 146.518C40.8853 149.07 42.2883 151.388 44.057 153.341C45.8257 155.293 47.9255 156.842 50.2364 157.899C52.5474 158.956 55.0242 159.5 57.5255 159.5H133.715C142.805 159.489 151.519 155.497 157.947 148.401C164.375 141.304 167.99 131.683 168 121.647C168 120.532 167.599 119.462 166.884 118.673C166.17 117.884 165.201 117.441 164.191 117.441ZM38.4782 50.1471H26.2346C23.4241 50.1316 20.7328 48.8921 18.7454 46.698C16.7581 44.5038 15.6354 41.5324 15.6214 38.4295C15.5364 35.3324 16.4386 32.3006 18.1706 29.8626C19.9027 27.4246 22.3547 25.7351 25.0994 25.0884C26.7415 24.7744 28.4259 24.8607 30.0346 25.3412C31.6433 25.8218 33.1374 26.685 34.412 27.8703C35.6867 29.0556 36.7111 30.5344 37.4135 32.2029C38.1159 33.8715 38.4793 35.6894 38.4782 37.5294V50.1471ZM133.715 151.088H79.049C86.0817 144.831 90.5938 135.762 91.605 125.853H160.114C159.188 132.856 156.011 139.258 151.165 143.891C146.319 148.523 140.125 151.078 133.715 151.088Z" fill="black"/>
</svg>
